# xmcd
#
# Track frame offsets:
#	150
#	10912
#	24426
#	38837
#	53635
#	68045
#	80607
#	97103
#	111851
#	121694
#	139120
#	155022
#	168003
#	179440
#	191013
#
# Disc length: 2782 seconds
#
# Revision: 0
# Processed by: cddbd v1.5PL3 Copyright (c) Steve Scherf et al.
# Submitted via: dBpowerAMP V4.0
#
DISCID=bf0adc0f
DTITLE=Various Artist - Heaven Bound - The Best of Bluegrass Gospel - Disc 1
DYEAR=1900
DGENRE=Bluegrass Gospel
TTITLE0=Lester Flatt and Earl Scruggs with the Foggy Mountain Boys - Get in Line Brother (If You Want to Go Home)
TTITLE1=Country Gentlemen - God's Coloring Book
TTITLE2=J.D. Crowe - It's Me Again Lord
TTITLE3=Stanley Brothers with the Clinch Mountain Boys - The White Dove
TTITLE4=Monroe Brothers - What Would You Give in Exchange for Your Soul
TTITLE5=Mac Wiseman - I'd Rather Live by the Side of the Road
TTITLE6=Isaacs - In His Arms I'm Not Afraid
TTITLE7=Larry Sparks - Ship from King's Harbor
TTITLE8=Tony Rice and Ricky Skaggs - Talk About Suffering
TTITLE9=Ralph Stanley with the Clinch Mountain Boys - Beautiful Star of Bethlehem
TTITLE10=Easter Brothers - A Heart That Will Never Break Again
TTITLE11=Bill Monroe - Were You There?
TTITLE12=Jim and Jesse with the Virginia Boys - I'll Wear the Banner
TTITLE13=Stanley Brothers with the Clinch Mountain Boys - The Fields Have Turned Brown
TTITLE14=IIIrd Tyme Out - Across the Miles
EXTD=Hey - Why isn't this in your database?  I already entered \ndetails for both discs when I copied them to the PC at my\nhome.....
EXTT0=
EXTT1=
EXTT2=
EXTT3=
EXTT4=
EXTT5=
EXTT6=
EXTT7=
EXTT8=
EXTT9=
EXTT10=
EXTT11=
EXTT12=
EXTT13=
EXTT14=
PLAYORDER=
